<svg width="128" height="128" viewBox="0 0 128 128" fill="none" xmlns="http://www.w3.org/2000/svg">
  <defs>
    <linearGradient id="badge" x1="83" y1="26" x2="103" y2="46" gradientUnits="userSpaceOnUse">
      <stop stop-color="#9EF0C8" />
      <stop offset="1" stop-color="#58C896" />
    </linearGradient>
    <filter id="shadow" x="8" y="14" width="112" height="104" filterUnits="userSpaceOnUse" color-interpolation-filters="sRGB">
      <feFlood flood-opacity="0" result="BackgroundImageFix"/>
      <feColorMatrix in="SourceAlpha" type="matrix" values="0 0 0 0 0 0 0 0 0 0 0 0 0 0 0 0 0 0 127 0" result="hardAlpha"/>
      <feOffset dy="5"/>
      <feGaussianBlur stdDeviation="5"/>
      <feComposite in2="hardAlpha" operator="out"/>
      <feColorMatrix type="matrix" values="0 0 0 0 0.0705882 0 0 0 0 0.156863 0 0 0 0 0.133333 0 0 0 0.22 0"/>
      <feBlend mode="normal" in2="BackgroundImageFix" result="effect1_dropShadow_1_2"/>
      <feBlend mode="normal" in="SourceGraphic" in2="effect1_dropShadow_1_2" result="shape"/>
    </filter>
  </defs>

  <g filter="url(#shadow)">
    <rect x="18" y="22" width="76" height="76" rx="22" fill="#F9FCFA"/>
    <rect x="18" y="22" width="76" height="76" rx="22" stroke="#17382F" stroke-width="7"/>

    <rect x="32" y="40" width="18" height="9" rx="4.5" fill="#63C9A4"/>
    <rect x="57" y="39" width="23" height="11" rx="5.5" fill="#17382F"/>
    <rect x="31" y="57" width="48" height="10" rx="5" fill="#1F483C"/>
    <rect x="31" y="74" width="34" height="10" rx="5" fill="#2D6A58"/>
  </g>

  <g>
    <circle cx="92" cy="36" r="15" fill="#F9FCFA"/>
    <circle cx="92" cy="36" r="13" fill="url(#badge)"/>
    <path d="M96.9 31.9H89.8L92.1 29.6C92.6 29.1 92.6 28.4 92.1 27.9C91.6 27.4 90.9 27.4 90.4 27.9L85.9 32.4C85.4 32.9 85.4 33.6 85.9 34.1L90.4 38.6C90.9 39.1 91.6 39.1 92.1 38.6C92.6 38.1 92.6 37.4 92.1 36.9L89.8 34.6H96.9C97.6 34.6 98.1 34.1 98.1 33.4C98.1 32.7 97.6 31.9 96.9 31.9Z" fill="#103127"/>
    <path d="M87.1 40.1H94.2L91.9 42.4C91.4 42.9 91.4 43.6 91.9 44.1C92.4 44.6 93.1 44.6 93.6 44.1L98.1 39.6C98.6 39.1 98.6 38.4 98.1 37.9L93.6 33.4C93.1 32.9 92.4 32.9 91.9 33.4C91.4 33.9 91.4 34.6 91.9 35.1L94.2 37.4H87.1C86.4 37.4 85.9 37.9 85.9 38.6C85.9 39.3 86.4 40.1 87.1 40.1Z" fill="#103127"/>
  </g>
</svg>
