<svg width="128" height="128" viewBox="0 0 128 128" fill="none" xmlns="http://www.w3.org/2000/svg">
  <defs>
    <linearGradient id="bg" x1="18" y1="10" x2="110" y2="118" gradientUnits="userSpaceOnUse">
      <stop stop-color="#244A40" />
      <stop offset="1" stop-color="#13312A" />
    </linearGradient>
    <linearGradient id="badge" x1="84" y1="18" x2="104" y2="42" gradientUnits="userSpaceOnUse">
      <stop stop-color="#9CF0C6" />
      <stop offset="1" stop-color="#57C795" />
    </linearGradient>
    <filter id="shadow" x="11" y="12" width="106" height="104" filterUnits="userSpaceOnUse" color-interpolation-filters="sRGB">
      <feFlood flood-opacity="0" result="BackgroundImageFix"/>
      <feColorMatrix in="SourceAlpha" type="matrix" values="0 0 0 0 0 0 0 0 0 0 0 0 0 0 0 0 0 0 127 0" result="hardAlpha"/>
      <feOffset dy="6"/>
      <feGaussianBlur stdDeviation="6"/>
      <feComposite in2="hardAlpha" operator="out"/>
      <feColorMatrix type="matrix" values="0 0 0 0 0.0431373 0 0 0 0 0.121569 0 0 0 0 0.101961 0 0 0 0.26 0"/>
      <feBlend mode="normal" in2="BackgroundImageFix" result="effect1_dropShadow_1_2"/>
      <feBlend mode="normal" in="SourceGraphic" in2="effect1_dropShadow_1_2" result="shape"/>
    </filter>
  </defs>

  <rect x="8" y="8" width="112" height="112" rx="30" fill="url(#bg)"/>
  <rect x="8.75" y="8.75" width="110.5" height="110.5" rx="29.25" stroke="#FFFFFF" stroke-opacity="0.16" stroke-width="1.5"/>

  <g filter="url(#shadow)">
    <rect x="22" y="24" width="84" height="80" rx="22" fill="#F7FBF8"/>
    <rect x="34" y="42" width="18" height="9" rx="4.5" fill="#59C8A2"/>
    <rect x="58" y="41" width="30" height="11" rx="5.5" fill="#18362E"/>
    <rect x="34" y="60" width="54" height="10" rx="5" fill="#21473C"/>
    <rect x="34" y="78" width="38" height="10" rx="5" fill="#2C6655" opacity="0.88"/>
  </g>

  <g>
    <circle cx="92" cy="36" r="14" fill="url(#badge)"/>
    <path d="M96.9 31.9H89.8L92.1 29.6C92.6 29.1 92.6 28.4 92.1 27.9C91.6 27.4 90.9 27.4 90.4 27.9L85.9 32.4C85.4 32.9 85.4 33.6 85.9 34.1L90.4 38.6C90.9 39.1 91.6 39.1 92.1 38.6C92.6 38.1 92.6 37.4 92.1 36.9L89.8 34.6H96.9C97.6 34.6 98.1 34.1 98.1 33.4C98.1 32.5 97.6 31.9 96.9 31.9Z" fill="#113228"/>
    <path d="M87.1 40.1H94.2L91.9 42.4C91.4 42.9 91.4 43.6 91.9 44.1C92.4 44.6 93.1 44.6 93.6 44.1L98.1 39.6C98.6 39.1 98.6 38.4 98.1 37.9L93.6 33.4C93.1 32.9 92.4 32.9 91.9 33.4C91.4 33.9 91.4 34.6 91.9 35.1L94.2 37.4H87.1C86.4 37.4 85.9 37.9 85.9 38.6C85.9 39.5 86.4 40.1 87.1 40.1Z" fill="#113228"/>
  </g>
</svg>
